<svg xmlns="http://www.w3.org/2000/svg" viewBox="0 0 201 201"><defs><style>.a{fill:none;}.b{fill:#fff;}.c{fill:#c30b25;}</style></defs><title>logo-mobile</title><rect class="a" x="-29.04" y="-29.05" width="259.09" height="259.08"/><rect class="b" width="201" height="201" rx="25.4" ry="25.4"/><path class="c" d="M127.53,127.24c-1.84-3.37-3.34-6.25-4.78-8.38-4.21-6.18-11-1-16.62-2.79-2.72-.83-5.1-3.17-6.87-8.74-.78-2.46-.15-3.21,1-3.62,1-.35,5.37-1.83,6.81-2.41,10.9-4.32,4.5-5.21,15.83-11,0,0-.65-4.18-.83-6.26-.34-3.85.47-4.24,2.65-1.54l3.24,4c.63.74,1.21.88,1.48-.31l1.48-7.74c.72-4.37,2.07-4.45,4.25-.47,3.22,5.87,5,9,12.77,15.94s6.76,18.42,1.15,27.62c-.8,1.25-1,2.21-.27,3.09.55.7,1.53,1.09,3.21.48,14.09-5.07,24.57-21.23,17.73-38.86A41.36,41.36,0,0,0,136,60.43c-5.83-.71-13.79-.32-23.42,4.5a22.41,22.41,0,0,0-2-4.77c-4.7-8.53-14.57-12.1-22-8-6.42,3.39-10.27,13-5,22.91a19.05,19.05,0,0,0,9.55,8.55A33.69,33.69,0,0,0,88.2,98.14c-.07.74-.28,1.16-.76,1.21s-.79-.37-1-1.34c-1.3-5.25.83-11.48.85-11.56a21.62,21.62,0,0,1-11.78-23H41c-6.38,0-9.23,6-9.23,10.26h0C31.79,79,34.5,84.14,41,84.14H66.5c1.86,0,2.08,1.22,1.07,2.1h0L55.68,96.62c-1.86,1.7-3.45,3.71-3,7.16.41,3.21,2.85,6.06,9.5,6.06h2.1c7.32,0,12.49,2.66,12.49,10.08,0,5.37-4.32,10.51-12.45,10.56-7.06,0-12.58-2.93-18.44-9-3.46-3.6-8.26-4.19-13,.33-3.71,3.55-5.71,8.24-1.52,13.17,2.9,3.41,14.34,15.64,33.15,15.64,17.84,0,29.27-11.35,32.88-16a41.45,41.45,0,0,0,32.69,16c14.68,0,29.55-7.9,37.06-21.38.75-1.35,1.44-3.1.05-3.93a2.38,2.38,0,0,0-3,.49C156.65,132.14,134.24,139.06,127.53,127.24Z"/></svg>